<?xml version="1.0" standalone="no"?>
<svg version="1.0" xmlns="http://www.w3.org/2000/svg"
 width="500.000000pt" height="500.000000pt" viewBox="0 0 500.000000 500.000000"
 preserveAspectRatio="xMidYMid meet">

<g transform="translate(0.000000,500.000000) scale(0.100000,-0.100000)"
fill="#000000" stroke="none">
<path d="M2623 4793 c-51 -27 -70 -28 -98 -8 -20 16 -80 12 -100 -6 -5 -5 -16
-9 -24 -9 -19 0 -112 -59 -129 -82 -7 -10 -24 -18 -38 -18 -28 0 -114 -41
-133 -63 -10 -12 -10 -20 1 -36 18 -30 2 -50 -65 -84 -64 -32 -83 -57 -67 -86
16 -30 12 -57 -14 -109 -35 -70 -40 -92 -22 -92 26 0 28 -19 11 -108 -14 -70
-17 -118 -12 -241 5 -151 5 -155 -19 -190 -16 -24 -24 -50 -24 -78 0 -32 -4
-43 -15 -43 -11 0 -10 -5 6 -21 14 -14 28 -19 44 -15 21 5 23 2 28 -42 7 -78
30 -202 38 -202 3 0 10 33 14 73 l7 72 14 -53 c20 -78 40 -111 72 -118 15 -3
41 -11 57 -17 18 -7 86 -12 170 -12 152 1 204 14 252 66 21 23 60 114 88 207
17 55 32 72 61 72 29 0 50 -30 65 -94 6 -28 27 -85 48 -126 32 -67 41 -78 86
-100 75 -37 276 -41 425 -8 12 2 15 -12 15 -85 0 -48 2 -83 3 -77 2 5 9 10 17
10 20 0 36 25 24 37 -12 12 -5 39 30 133 24 62 28 111 9 107 -18 -3 -22 41 -8
100 11 50 13 52 33 42 17 -10 24 -8 39 11 10 13 15 26 10 29 -5 3 -11 34 -14
69 -4 51 -9 67 -33 92 l-28 29 7 138 c6 112 4 153 -9 212 -16 69 -16 75 1 107
18 33 18 35 -5 106 -33 104 -55 151 -89 189 -37 43 -55 77 -56 108 -1 32 -95
91 -144 91 -33 0 -105 41 -145 82 -10 10 -31 18 -48 18 -17 0 -54 11 -84 25
-71 34 -186 33 -252 -2z m-99 -601 c14 3 26 1 26 -3 0 -13 29 -10 74 6 46 16
96 9 96 -12 0 -19 41 -13 103 16 35 16 43 17 45 5 4 -18 11 -18 58 5 l39 19 6
-21 c6 -24 41 -29 88 -13 20 7 23 6 17 -9 -6 -16 -1 -17 49 -12 30 3 55 2 55
-3 0 -5 10 -10 21 -12 45 -7 109 -180 109 -293 0 -13 11 -49 25 -79 14 -30 25
-57 25 -60 0 -3 -13 -6 -29 -6 -23 0 -30 5 -36 28 -11 43 -52 89 -92 103 -25
8 -78 10 -165 7 -155 -7 -181 -18 -176 -76 3 -34 6 -37 35 -40 18 -2 60 4 94
12 81 21 217 21 247 0 12 -8 22 -18 22 -22 0 -4 -100 -9 -223 -12 -258 -5
-288 -5 -625 5 l-252 8 32 23 c44 33 114 31 308 -5 30 -6 63 -8 73 -5 23 7 23
66 0 85 -43 36 -278 53 -346 24 -39 -16 -84 -65 -93 -101 -5 -20 -12 -24 -46
-24 -36 0 -39 2 -33 23 4 12 15 36 25 53 17 31 34 92 46 174 7 49 33 107 70
157 22 28 28 31 50 23 35 -14 37 -13 32 15 -5 21 -2 25 14 19 10 -3 25 -1 33
6 10 8 21 6 47 -10 47 -28 67 -26 80 11 l11 32 17 -23 c13 -17 24 -22 44 -18z
m-187 -508 c-3 -3 -12 -4 -19 -1 -8 3 -5 6 6 6 11 1 17 -2 13 -5z m171 -33
c97 -9 112 -20 119 -84 9 -79 -65 -258 -119 -289 -73 -41 -212 -50 -305 -21
-65 20 -96 56 -112 131 -13 62 -15 221 -2 241 5 8 26 17 47 21 52 10 269 11
372 1z m804 -11 c21 -6 43 -21 49 -32 13 -24 6 -156 -11 -235 -12 -52 -55
-113 -79 -113 -9 0 -22 -5 -28 -11 -15 -15 -221 -13 -258 3 -79 35 -113 87
-151 230 -22 84 -10 140 34 156 36 14 397 15 444 2z m-652 -20 c0 -5 -4 -10
-10 -10 -5 0 -10 5 -10 10 0 6 5 10 10 10 6 0 10 -4 10 -10z m-653 -182 c-3
-8 -6 -5 -6 6 -1 11 2 17 5 13 3 -3 4 -12 1 -19z"/>
<path d="M2270 3569 c-44 -12 -80 -52 -80 -87 0 -27 1 -27 17 6 15 30 57 62
83 62 6 0 8 -14 4 -39 -4 -24 -1 -48 7 -64 19 -35 86 -80 102 -67 77 60 82 68
82 114 0 25 3 46 6 46 15 0 49 -49 50 -71 l0 -24 11 23 c36 73 -146 138 -282
101z m140 -70 c0 -24 -14 -24 -40 -2 -22 20 -26 49 -7 56 16 6 47 -30 47 -54z"/>
<path d="M2984 3581 c-79 -20 -123 -68 -108 -118 8 -28 8 -28 12 9 2 26 11 44
29 58 33 26 47 26 32 -1 -29 -56 33 -161 89 -151 78 14 126 103 86 160 -22 31
-12 37 28 16 32 -16 56 -42 69 -74 6 -13 8 -13 14 3 9 21 -15 60 -49 83 -28
18 -154 28 -202 15z m46 -50 c14 -27 13 -51 -3 -51 -21 0 -50 37 -44 55 9 21
34 19 47 -4z"/>
<path d="M1960 3241 c0 -12 5 -21 10 -21 6 0 10 6 10 14 0 8 -4 18 -10 21 -5
3 -10 -3 -10 -14z"/>
<path d="M2850 3071 c-45 -9 -125 -61 -94 -61 20 0 61 11 116 32 15 5 29 16
32 24 6 15 0 15 -54 5z"/>
<path d="M2552 3058 c2 -6 26 -17 54 -25 94 -27 101 -26 49 6 -50 31 -110 42
-103 19z"/>
<path d="M3349 2983 c-5 -14 -8 -30 -6 -36 1 -5 8 7 14 27 13 42 7 49 -8 9z"/>
<path d="M2407 2871 c77 -73 139 -94 287 -99 121 -4 171 4 249 39 37 16 132
97 124 106 -2 2 -78 -1 -168 -8 -148 -10 -299 -8 -479 7 l-65 5 52 -50z m560
6 c1 -2 -2 -9 -7 -16 -10 -17 -80 -29 -206 -37 -133 -9 -314 23 -314 55 0 6
521 4 527 -2z"/>
<path d="M1323 2730 c0 -30 2 -43 4 -27 2 15 2 39 0 55 -2 15 -4 2 -4 -28z"/>
<path d="M1330 2597 c0 -26 5 -47 10 -47 6 0 8 16 4 43 -9 58 -14 59 -14 4z"/>
<path d="M1151 2604 c0 -11 3 -14 6 -6 3 7 2 16 -1 19 -3 4 -6 -2 -5 -13z"/>
<path d="M1161 2570 c0 -8 4 -22 9 -30 12 -18 12 -2 0 25 -6 13 -9 15 -9 5z"/>
<path d="M2866 2398 c-24 -34 -19 -46 24 -58 22 -6 40 -15 40 -19 0 -5 7 -11
15 -15 8 -3 2 13 -15 36 -17 23 -30 49 -30 60 0 24 -15 23 -34 -4z"/>
<path d="M1502 2265 c0 -16 2 -22 5 -12 2 9 2 23 0 30 -3 6 -5 -1 -5 -18z"/>
<path d="M1501 2214 c0 -11 3 -14 6 -6 3 7 2 16 -1 19 -3 4 -6 -2 -5 -13z"/>
</g>
</svg>
