<?xml version="1.0" standalone="no"?>
<!DOCTYPE svg PUBLIC "-//W3C//DTD SVG 20010904//EN"
 "http://www.w3.org/TR/2001/REC-SVG-20010904/DTD/svg10.dtd">
<svg version="1.0" xmlns="http://www.w3.org/2000/svg"
 width="500.000000pt" height="500.000000pt" viewBox="0 0 500.000000 500.000000"
 preserveAspectRatio="xMidYMid meet">
<metadata>
Created by potrace 1.16, written by Peter Selinger 2001-2019
</metadata>
<g transform="translate(0.000000,500.000000) scale(0.100000,-0.100000)"
fill="#000000" stroke="none">
<path d="M2660 4824 c-8 -3 -34 -14 -58 -26 -40 -18 -45 -19 -67 -4 -31 20
-40 20 -112 -3 -58 -18 -138 -65 -163 -96 -7 -8 -23 -15 -36 -15 -30 0 -134
-57 -141 -78 -4 -8 -1 -23 6 -34 16 -26 -3 -48 -65 -77 -60 -29 -79 -60 -63
-104 11 -30 9 -40 -13 -88 -40 -84 -42 -95 -18 -112 20 -14 20 -16 5 -88 -11
-51 -15 -124 -14 -241 1 -156 -1 -170 -20 -194 -14 -18 -21 -41 -21 -69 0 -42
0 -42 -42 -48 -25 -3 -51 -15 -67 -31 -51 -51 -37 -232 27 -349 37 -69 123
-145 172 -153 37 -6 40 -9 56 -63 58 -188 180 -347 357 -464 83 -56 91 -71 63
-126 -13 -24 -25 -30 -78 -39 -35 -7 -94 -19 -133 -27 -38 -8 -113 -14 -166
-15 -102 0 -196 -25 -286 -75 -24 -13 -43 -20 -43 -16 0 12 48 81 91 130 46
51 49 82 13 110 -33 26 -45 26 -92 2 -44 -23 -83 -61 -122 -117 -31 -45 -97
-101 -107 -90 -3 3 3 81 15 173 12 93 24 209 27 258 3 50 11 138 17 197 11 95
10 112 -4 141 -18 38 -53 52 -91 38 -32 -12 -42 -60 -57 -256 -12 -153 -16
-176 -37 -219 -23 -45 -33 -20 -43 105 -31 378 -36 403 -82 410 -41 7 -69 -2
-80 -26 -7 -17 -7 -89 1 -251 7 -150 7 -232 1 -238 -7 -7 -10 -1 -10 16 0 14
-7 45 -15 68 -8 23 -15 66 -16 94 0 69 -23 192 -39 211 -16 19 -74 20 -90 0
-15 -18 -7 -262 12 -380 9 -59 9 -75 -4 -99 -14 -28 -16 -28 -26 -10 -5 10
-15 48 -20 84 -34 208 -39 220 -87 220 -17 0 -36 -5 -43 -12 -15 -15 -15 -93
-1 -173 5 -33 16 -98 24 -145 7 -47 25 -114 39 -149 14 -36 26 -72 26 -80 1
-9 8 -34 16 -56 8 -22 17 -79 20 -126 4 -84 4 -87 -20 -103 -32 -20 -53 -59
-60 -111 -5 -35 -4 -34 9 10 10 35 26 61 53 85 39 35 40 37 32 80 -5 25 -6 55
-3 67 3 12 -5 49 -16 83 -12 33 -21 66 -21 73 0 7 -12 42 -26 78 -14 35 -32
105 -40 154 -7 50 -18 113 -23 140 -6 28 -10 76 -10 108 -1 63 9 74 54 63 28
-7 39 -41 50 -146 7 -68 31 -158 47 -175 6 -7 16 -2 29 15 17 20 20 34 16 80
-3 30 -11 135 -18 233 -11 154 -11 180 2 188 21 13 55 11 68 -5 13 -15 28
-104 36 -209 5 -72 23 -164 36 -189 27 -51 53 4 44 96 -2 28 -10 126 -16 217
-14 191 -10 209 45 209 27 0 36 -5 44 -27 19 -50 21 -66 32 -263 6 -107 13
-205 15 -216 9 -43 66 -37 80 7 13 40 25 135 34 269 10 151 19 185 51 193 62
16 81 -29 70 -159 -5 -54 -14 -162 -20 -239 -6 -77 -20 -189 -31 -250 -24
-142 -25 -175 -1 -175 27 0 95 62 132 119 29 46 122 121 150 121 6 0 22 -11
36 -25 29 -30 25 -42 -42 -121 -46 -54 -82 -120 -71 -130 3 -3 20 4 36 16 17
11 70 35 118 52 75 26 110 31 233 38 88 5 162 15 189 24 24 9 65 16 92 16 43
0 50 3 63 28 8 15 15 45 17 67 3 31 0 41 -16 50 -197 101 -353 289 -415 497
-22 74 -24 77 -49 72 -39 -8 -118 49 -163 116 -50 74 -70 139 -75 242 -5 87
-5 87 25 118 35 34 98 43 109 14 4 -11 14 -14 34 -10 26 5 27 3 32 -42 7 -78
30 -202 38 -202 3 0 10 33 14 73 l7 72 14 -53 c20 -78 40 -111 72 -118 15 -3
41 -11 57 -17 18 -7 86 -12 170 -12 152 1 204 14 252 66 21 23 60 114 88 207
17 55 32 72 61 72 29 0 50 -30 65 -94 6 -28 27 -85 48 -126 32 -67 41 -78 86
-100 75 -37 276 -41 425 -8 12 2 15 -12 15 -85 0 -48 2 -83 3 -77 2 5 9 10 17
10 20 0 36 25 24 37 -12 12 -5 39 30 133 24 62 28 111 9 107 -18 -3 -22 41 -8
100 11 50 13 52 33 42 17 -10 24 -8 39 11 25 30 60 20 88 -26 26 -41 24 -86
-8 -210 -32 -126 -118 -234 -201 -250 -38 -8 -39 -9 -52 -81 -11 -60 -32 -103
-104 -213 -72 -111 -162 -193 -293 -269 -77 -45 -109 -84 -81 -102 8 -5 22 -9
31 -9 9 0 24 -7 33 -16 10 -10 38 -18 75 -20 45 -3 80 -14 142 -45 89 -45 152
-67 263 -94 172 -42 275 -134 327 -295 15 -47 28 -94 29 -105 0 -11 5 -29 10
-40 15 -34 1 41 -28 143 -49 172 -155 265 -363 316 -63 16 -146 46 -208 76
-67 32 -123 52 -158 56 -49 6 -58 11 -80 43 -13 20 -24 41 -24 47 0 6 28 28
63 49 191 117 337 298 386 479 14 52 20 61 49 70 18 6 54 30 81 53 76 66 125
181 137 324 7 75 6 76 -26 112 -18 21 -43 40 -56 43 -20 5 -24 13 -24 43 0 52
-16 101 -41 124 -21 20 -22 26 -16 153 5 99 3 153 -8 211 -13 69 -13 79 1 101
18 28 14 81 -11 128 -8 16 -15 37 -15 47 0 26 -37 95 -77 144 -20 26 -37 60
-41 85 -6 37 -13 45 -57 71 -27 16 -70 32 -95 36 -44 7 -121 51 -149 85 -8 9
-28 16 -45 16 -17 0 -55 11 -84 25 -44 20 -69 25 -130 24 -43 0 -84 -3 -92 -5z
m-136 -632 c14 3 26 1 26 -3 0 -13 29 -10 74 6 46 16 96 9 96 -12 0 -19 41
-13 103 16 35 16 43 17 45 5 4 -18 11 -18 58 5 l39 19 6 -21 c6 -24 41 -29 88
-13 20 7 23 6 17 -9 -6 -16 -1 -17 49 -12 30 3 55 2 55 -3 0 -5 10 -10 21 -12
45 -7 109 -180 109 -293 0 -13 11 -49 25 -79 14 -30 25 -57 25 -60 0 -3 -13
-6 -29 -6 -23 0 -30 5 -36 28 -11 43 -52 89 -92 103 -25 8 -78 10 -165 7 -155
-7 -181 -18 -176 -76 3 -34 6 -37 35 -40 18 -2 60 4 94 12 81 21 217 21 247 0
12 -8 22 -18 22 -22 0 -4 -100 -9 -223 -12 -258 -5 -288 -5 -625 5 l-252 8 32
23 c44 33 114 31 308 -5 30 -6 63 -8 73 -5 23 7 23 66 0 85 -43 36 -278 53
-346 24 -39 -16 -84 -65 -93 -101 -5 -20 -12 -24 -46 -24 -36 0 -39 2 -33 23
4 12 15 36 25 53 17 31 34 92 46 174 7 49 33 107 70 157 22 28 28 31 50 23 35
-14 37 -13 32 15 -5 21 -2 25 14 19 10 -3 25 -1 33 6 10 8 21 6 47 -10 47 -28
67 -26 80 11 l11 32 17 -23 c13 -17 24 -22 44 -18z m-16 -541 c97 -9 112 -20
119 -84 9 -79 -65 -258 -119 -289 -73 -41 -212 -50 -305 -21 -65 20 -96 56
-112 131 -13 62 -15 221 -2 241 5 8 26 17 47 21 52 10 269 11 372 1z m804 -11
c21 -6 43 -21 49 -32 13 -24 6 -156 -11 -235 -12 -52 -55 -113 -79 -113 -9 0
-22 -5 -28 -11 -15 -15 -221 -13 -258 3 -79 35 -113 87 -151 230 -22 84 -10
140 34 156 36 14 397 15 444 2z"/>
<path d="M2270 3569 c-44 -12 -80 -52 -80 -87 0 -27 1 -27 17 6 15 30 57 62
83 62 6 0 8 -14 4 -39 -4 -24 -1 -48 7 -64 19 -35 86 -80 102 -67 77 60 82 68
82 114 0 25 3 46 6 46 15 0 49 -49 50 -71 l0 -24 11 23 c36 73 -146 138 -282
101z"/>
<path d="M2984 3581 c-79 -20 -123 -68 -108 -118 8 -28 8 -28 12 9 2 26 11 44
29 58 33 26 47 26 32 -1 -29 -56 33 -161 89 -151 78 14 126 103 86 160 -22 31
-12 37 28 16 32 -16 56 -42 69 -74 6 -13 8 -13 14 3 9 21 -15 60 -49 83 -28
18 -154 28 -202 15z"/>
<path d="M2407 2871 c77 -73 139 -94 287 -99 121 -4 171 4 249 39 37 16 132
97 124 106 -2 2 -78 -1 -168 -8 -148 -10 -299 -8 -479 7 l-65 5 52 -50z m560
6 c1 -2 -2 -9 -7 -16 -10 -17 -80 -29 -206 -37 -133 -9 -314 23 -314 55 0 6
521 4 527 -2z"/>
<path d="M3891 1208 c-1 -10 6 -37 14 -60 7 -24 26 -90 40 -148 30 -123 39
-158 58 -225 9 -27 20 -77 27 -110 17 -89 35 -146 63 -201 13 -27 28 -65 32
-84 4 -19 13 -53 21 -75 7 -22 17 -66 22 -97 l9 -58 -1214 0 -1213 0 5 97 c12
190 36 459 46 512 15 74 0 85 -38 29 -17 -23 -38 -60 -47 -80 -10 -20 -41 -58
-69 -84 -46 -42 -59 -48 -112 -55 l-60 -8 62 3 c56 2 66 6 106 42 24 21 66 74
92 117 26 43 49 76 52 73 3 -3 1 -47 -5 -98 -12 -98 -27 -285 -37 -455 l-6
-103 1219 0 c670 0 1221 2 1224 5 16 16 -36 222 -82 325 -16 36 -40 113 -54
170 -55 243 -154 602 -155 568z"/>
</g>
</svg>
